<?xml version="1.0" encoding="utf-8"?>
<!-- Generator: Adobe Illustrator 15.0.2, SVG Export Plug-In . SVG Version: 6.00 Build 0)  -->
<!DOCTYPE svg PUBLIC "-//W3C//DTD SVG 1.1//EN" "http://www.w3.org/Graphics/SVG/1.1/DTD/svg11.dtd">
<svg version="1.1" id="Layer_1" xmlns="http://www.w3.org/2000/svg" xmlns:xlink="http://www.w3.org/1999/xlink" x="0px" y="0px"
	 width="20.2px" height="20px" viewBox="4.9 0 20.2 20" style="enable-background:new 4.9 0 20.2 20;" xml:space="preserve">
<g>
	<g>
		<path d="M19,14.5H16.9v2.1H19V14.5z M16.1,8.9H14V11h2.1V8.9z M19,11.7H16.9v2.1H19V11.7z M19,8.9H16.9V11H19V8.9z M21.9,11.7
			h-2.1v2.1h2.1V11.7z M9.9,4.8c0.5,0,0.9-0.4,0.9-0.9v-3c0-0.5-0.4-0.9-0.9-0.9S9,0.4,9,0.9V4C9,4.4,9.4,4.8,9.9,4.8z M20.2,4.8
			c0.5,0,0.899-0.4,0.899-0.9v-3C21.1,0.4,20.7,0,20.2,0s-0.9,0.4-0.9,0.9V4C19.4,4.4,19.8,4.8,20.2,4.8z M21.9,8.9h-2.1V11h2.1V8.9
			z M13.1,14.5H11v2.1h2.1V14.5z M10.2,14.5H8.1v2.1H10.2V14.5z M21.4,1.6v0.9C21.7,2.8,22,3.3,22,3.8c0,1-0.8,1.7-1.7,1.7
			s-1.7-0.8-1.7-1.7c0-0.5,0.2-1,0.601-1.3V1.6H11v0.9c0.399,0.3,0.6,0.8,0.6,1.3c0,1-0.8,1.7-1.7,1.7C8.9,5.5,8.2,4.7,8.2,3.8
			c0-0.5,0.199-1,0.6-1.3V1.6H4.9V20h20.2V1.6H21.4z M23.2,18.2H6.7V6.7h16.5V18.2z M10.2,11.7H8.1v2.1H10.2V11.7z M13.1,11.7H11
			v2.1h2.1V11.7z M16.1,14.5H14v2.1h2.1V14.5z M13.1,8.9H11V11h2.1V8.9z M16.1,11.7H14v2.1h2.1V11.7z M10.2,8.9H8.1V11H10.2V8.9z"/>
	</g>
</g>
</svg>
