<?xml version="1.0" encoding="utf-8"?>
<!-- Generator: Adobe Illustrator 15.0.2, SVG Export Plug-In . SVG Version: 6.00 Build 0)  -->
<!DOCTYPE svg PUBLIC "-//W3C//DTD SVG 1.1//EN" "http://www.w3.org/Graphics/SVG/1.1/DTD/svg11.dtd">
<svg version="1.1" id="Layer_1" xmlns="http://www.w3.org/2000/svg" xmlns:xlink="http://www.w3.org/1999/xlink" x="0px" y="0px"
	 width="3.974px" height="16.98px" viewBox="0.763 -0.206 3.974 16.98" style="enable-background:new 0.763 -0.206 3.974 16.98;"
	 xml:space="preserve">
<path style="fill:#231F20;" d="M4.737,1.774c0,1.094-0.89,1.98-1.987,1.98s-1.987-0.887-1.987-1.98s0.89-1.98,1.987-1.98
	S4.737,0.68,4.737,1.774z"/>
<path style="fill:#231F20;" d="M4.737,8.284c0,1.094-0.89,1.98-1.987,1.98s-1.987-0.887-1.987-1.98s0.89-1.98,1.987-1.98
	S4.737,7.19,4.737,8.284z"/>
<path style="fill:#231F20;" d="M4.737,14.794c0,1.094-0.89,1.98-1.987,1.98s-1.987-0.887-1.987-1.98c0-1.096,0.89-1.982,1.987-1.982
	S4.737,13.698,4.737,14.794z"/>
</svg>
