<?xml version="1.0" encoding="utf-8"?>
<!-- Generator: Adobe Illustrator 15.0.2, SVG Export Plug-In . SVG Version: 6.00 Build 0)  -->
<!DOCTYPE svg PUBLIC "-//W3C//DTD SVG 1.1//EN" "http://www.w3.org/Graphics/SVG/1.1/DTD/svg11.dtd">
<svg version="1.1" id="Layer_1" xmlns="http://www.w3.org/2000/svg" xmlns:xlink="http://www.w3.org/1999/xlink" x="0px" y="0px"
	 width="18.103px" height="14.949px" viewBox="6 2.625 18.103 14.949" style="enable-background:new 6 2.625 18.103 14.949;"
	 xml:space="preserve">
<g id="logout">
	<path d="M16.3,11.1v-2h-6.2V6L6,10.1l4.1,4.1V11.1H16.3z M11.3,4.8l1.4,1.4c1.1-1.1,2.5-1.6,3.899-1.6c1.4,0,2.8,0.5,3.9,1.6l0,0
		c1.1,1.1,1.6,2.5,1.6,3.9s-0.5,2.8-1.6,3.9l0,0c-1.101,1.1-2.5,1.6-3.9,1.6c-1.399,0-2.8-0.5-3.899-1.6l-1.4,1.4
		c2.9,2.899,7.7,2.899,10.6,0l0.7-0.801c2.2-2.899,2-7.1-0.7-9.8l0,0C19,1.9,14.2,1.9,11.3,4.8z"/>
</g>
</svg>
