<?xml version="1.0" encoding="utf-8"?>
<!-- Generator: Adobe Illustrator 15.0.2, SVG Export Plug-In . SVG Version: 6.00 Build 0)  -->
<!DOCTYPE svg PUBLIC "-//W3C//DTD SVG 1.1//EN" "http://www.w3.org/Graphics/SVG/1.1/DTD/svg11.dtd">
<svg version="1.1" id="Layer_1" xmlns="http://www.w3.org/2000/svg" xmlns:xlink="http://www.w3.org/1999/xlink" x="0px" y="0px"
	 width="30.1px" height="20px" viewBox="0 0 30.1 20" style="enable-background:new 0 0 30.1 20;" xml:space="preserve">
<path style="fill-rule:evenodd;clip-rule:evenodd;" d="M23.3,15.7L23.3,15.7L23.3,15.7l-3.9-3.9c0.5-0.9,0.9-2,0.9-3.1
	c0-3.5-2.8-6.4-6.3-6.4c0,0,0,0,0,0c-3.5,0-6.3,2.8-6.4,6.3c0,3.5,2.8,6.4,6.3,6.4c0,0,0,0,0,0c1.2,0,2.3-0.3,3.2-0.9l3.8,3.8l0,0
	l0.1,0.1c0.3,0.3,0.8,0.3,1.1,0l1.2-1.2C23.5,16.5,23.5,16,23.3,15.7z M17.2,12c-0.9,0.9-2.1,1.4-3.3,1.4h0c-2.6,0-4.7-2.2-4.7-4.8
	c0-1.3,0.5-2.4,1.4-3.3c0.9-0.9,2.1-1.4,3.3-1.4h0c1.3,0,2.5,0.5,3.3,1.4c0.9,0.9,1.4,2.1,1.4,3.4C18.6,10,18.1,11.1,17.2,12z"/>
</svg>
