<?xml version="1.0" encoding="utf-8"?>
<!-- Generator: Adobe Illustrator 15.0.2, SVG Export Plug-In . SVG Version: 6.00 Build 0)  -->
<!DOCTYPE svg PUBLIC "-//W3C//DTD SVG 1.1//EN" "http://www.w3.org/Graphics/SVG/1.1/DTD/svg11.dtd">
<svg version="1.1" id="Layer_1" xmlns="http://www.w3.org/2000/svg" xmlns:xlink="http://www.w3.org/1999/xlink" x="0px" y="0px"
	 width="15.925px" height="15.925px" viewBox="7.5 2 15.925 15.925" style="enable-background:new 7.5 2 15.925 15.925;"
	 xml:space="preserve">
<path d="M23.2,15.4L23.2,15.4L23.2,15.4l-3.9-3.9c0.5-0.9,0.9-2,0.9-3.1C20.2,4.9,17.4,2,13.9,2l0,0C10.4,2,7.6,4.8,7.5,8.3
	c0,3.5,2.8,6.4,6.3,6.4l0,0c1.2,0,2.3-0.3,3.2-0.9l3.8,3.8l0,0l0.1,0.101C21.2,18,21.7,18,22,17.7l1.2-1.2
	C23.5,16.2,23.5,15.7,23.2,15.4z M17.2,11.7C16.3,12.6,15.1,13.1,13.9,13.1l0,0C11.3,13.1,9.2,10.9,9.2,8.3C9.2,7,9.7,5.9,10.6,5
	c0.9-0.9,2.101-1.4,3.3-1.4l0,0C15.2,3.6,16.4,4.1,17.2,5C18.1,5.9,18.6,7.1,18.6,8.4C18.6,9.7,18.1,10.8,17.2,11.7z"/>
</svg>
