<?xml version="1.0" encoding="utf-8"?>
<!-- Generator: Adobe Illustrator 15.0.2, SVG Export Plug-In . SVG Version: 6.00 Build 0)  -->
<!DOCTYPE svg PUBLIC "-//W3C//DTD SVG 1.1//EN" "http://www.w3.org/Graphics/SVG/1.1/DTD/svg11.dtd">
<svg version="1.1" id="Layer_1" xmlns="http://www.w3.org/2000/svg" xmlns:xlink="http://www.w3.org/1999/xlink" x="0px" y="0px"
	 width="16px" height="16px" viewBox="7.1 2.2 16 16" style="enable-background:new 7.1 2.2 16 16;" xml:space="preserve">
<g id="settings">
	<path d="M23.1,11.1V9.2l-0.3-0.1l-1.9-0.6l-0.5-1.3l1-2.1L20,3.9L19.8,4L18,4.9l-1.3-0.5L15.9,2.2h-1.8L14,2.4L13.4,4.3l-1.3,0.5
		l-2.1-1L8.7,5.2l0.1,0.2l0.9,1.8L9.3,8.5L7.1,9.3v1.8L7.4,11.2l1.9,0.6l0.5,1.3l-1,2.101l1.3,1.3l0.2-0.1l1.8-0.9l1.3,0.5
		l0.801,2.2H16l0.1-0.3L16.7,16l1.3-0.5l2.1,1l1.3-1.3L21.3,15l-0.9-1.8l0.5-1.3L23.1,11.1z M15.1,12.7c-1.399,0-2.5-1.101-2.5-2.5
		c0-1.4,1.101-2.5,2.5-2.5c1.4,0,2.5,1.1,2.5,2.5C17.6,11.6,16.5,12.7,15.1,12.7z"/>
</g>
</svg>
