<?xml version="1.0" encoding="utf-8"?>
<!-- Generator: Adobe Illustrator 15.0.2, SVG Export Plug-In . SVG Version: 6.00 Build 0)  -->
<!DOCTYPE svg PUBLIC "-//W3C//DTD SVG 1.1//EN" "http://www.w3.org/Graphics/SVG/1.1/DTD/svg11.dtd">
<svg version="1.1" id="Layer_1" xmlns="http://www.w3.org/2000/svg" xmlns:xlink="http://www.w3.org/1999/xlink" x="0px" y="0px"
	 width="16.601px" height="16.6px" viewBox="7.1 1.6 16.601 16.6" style="enable-background:new 7.1 1.6 16.601 16.6;"
	 xml:space="preserve">
<g id="support">
	<path d="M15.4,18.2c-4.6,0-8.3-3.7-8.3-8.3s3.7-8.3,8.3-8.3C20,1.6,23.7,5.3,23.7,9.9S20,18.2,15.4,18.2z M15.4,3.1
		c-3.8,0-6.8,3.1-6.8,6.8c0,3.8,3.101,6.8,6.8,6.8C19.2,16.7,22.2,13.6,22.2,9.9C22.3,6.2,19.2,3.1,15.4,3.1z M17.6,10.4l-0.5,0.4
		c-0.3,0.2-0.5,0.5-0.5,0.7c-0.1,0.2-0.1,0.5-0.1,0.8h-1.9c0-0.8,0.101-1.399,0.2-1.7c0.1-0.3,0.4-0.7,0.9-1.1l0.5-0.4
		C16.4,9,16.5,8.8,16.6,8.7c0.2-0.3,0.3-0.5,0.3-0.9c0-0.4-0.1-0.7-0.3-1c-0.2-0.3-0.6-0.4-1.2-0.4c-0.5,0-0.899,0.2-1.199,0.5
		C14,7.3,13.9,7.6,13.9,8h-2.1c0.1-1.4,0.5-2.3,1.4-2.9c0.6-0.4,1.199-0.5,2.1-0.5c1.1,0,2,0.3,2.7,0.8s1.1,1.3,1.1,2.3
		c0,0.6-0.2,1.1-0.5,1.6C18.4,9.7,18.1,10,17.6,10.4z M16.6,15.4h-2.1V13.3h2.1V15.4z"/>
</g>
</svg>
