<?xml version="1.0" encoding="utf-8"?>
<!-- Generator: Adobe Illustrator 15.0.2, SVG Export Plug-In . SVG Version: 6.00 Build 0)  -->
<!DOCTYPE svg PUBLIC "-//W3C//DTD SVG 1.1//EN" "http://www.w3.org/Graphics/SVG/1.1/DTD/svg11.dtd">
<svg version="1.1" id="Layer_1" xmlns="http://www.w3.org/2000/svg" xmlns:xlink="http://www.w3.org/1999/xlink" x="0px" y="0px"
	 width="11.899px" height="13.6px" viewBox="9.5 3.2 11.899 13.6" style="enable-background:new 9.5 3.2 11.899 13.6;"
	 xml:space="preserve">
<path d="M11.4,16.8h8.2l0.8-8.9H10.7L11.4,16.8z M20.8,4.9h-2.6V4.6c0-0.8-0.601-1.4-1.4-1.4h-2.6c-0.801,0-1.4,0.6-1.4,1.4v0.3
	h-2.6c-0.4,0-0.7,0.3-0.7,0.7v1.6H21.4V5.5C21.4,5.2,21.1,4.9,20.8,4.9z M17.3,4.9h-3.5V4.6c0-0.2,0.2-0.4,0.4-0.4h2.6
	c0.2,0,0.4,0.2,0.4,0.4v0.3H17.3z"/>
</svg>
