<?xml version="1.0" encoding="utf-8"?>
<!-- Generator: Adobe Illustrator 15.0.2, SVG Export Plug-In . SVG Version: 6.00 Build 0)  -->
<!DOCTYPE svg PUBLIC "-//W3C//DTD SVG 1.1//EN" "http://www.w3.org/Graphics/SVG/1.1/DTD/svg11.dtd">
<svg version="1.1" id="Layer_1" xmlns="http://www.w3.org/2000/svg" xmlns:xlink="http://www.w3.org/1999/xlink" x="0px" y="0px"
	 width="23.03px" height="15.277px" viewBox="3.7 2.322 23.03 15.277" style="enable-background:new 3.7 2.322 23.03 15.277;"
	 xml:space="preserve">
<g id="users">
	<path d="M26.4,15.6c-0.699-0.699-2-1.1-3.1-1.399c-1.4-0.4-2-1.5-2.1-2.5c0.199-0.2,0.3-0.4,0.5-0.601c0.899,0.301,2,0.4,3-0.3
		C23.4,9.5,24.4,7.9,23.5,5C22.7,2.5,19.4,2.7,19,3.5C17.2,2.9,15.9,3.7,15.4,6.3c-0.6,3,0.5,3.3-0.8,4.601c1,0.6,1.9,0.399,2.7,0.1
		c0.2,0.2,0.3,0.4,0.5,0.6c-0.2,1-0.7,2.101-2.1,2.5C14.6,14.4,13.4,14.8,12.6,15.5c-0.6,0.6-0.2,2-0.2,2h14.2
		C26.6,17.6,27,16.2,26.4,15.6z M11.9,15.3c0.7-0.7,1.9-1.1,2.9-1.399c0.1,0,0.2-0.101,0.3-0.101c0.4-0.1,0.8-0.3,1.101-0.6
		c-0.301-0.101-0.7-0.3-1-0.4c-0.2-0.1-0.5-0.1-0.7-0.2C14.2,12.4,13.9,11.8,13.8,11.4c-0.2,0-0.3,0-0.4-0.101
		c0-0.5,0.301-0.5,0.4-0.9c0.1-0.3,0-0.8,0.2-1.1C14.1,9.1,14.3,9.1,14.4,9V8.9c0-0.5-0.1-1.3,0.101-2.4l0,0c0-0.3,0.1-1.3,0.1-1.6
		c0-0.6,0-0.6-0.1-1.2c0,0-0.2-0.5-0.4-0.7l-0.5-0.1l-0.3-0.3C11.9,2,10.5,2.5,9.7,2.9C8.6,3.2,7.9,4.3,8.4,6.5
		C8.5,6.9,8.2,7.1,8.2,7.3c0,0.5,0.1,1.6,0.5,1.8L9,9.2c0,0.4,0.1,0.9,0.1,1.3c0.101,0.3,0.4,0.3,0.4,0.8L9.2,11.4
		c-0.2,0.3-0.4,1-0.7,1.199C8.3,12.7,8,12.7,7.8,12.8C7,13.1,6.4,13.5,5.6,13.9C4.8,14.2,3.9,14.3,3.7,15.1c0,0.5,0,1.801,0,2.5h7.8
		C11.5,17.2,11.3,16,11.9,15.3z"/>
</g>
</svg>
