<?xml version="1.0" encoding="utf-8"?>
<!-- Generator: Adobe Illustrator 15.0.2, SVG Export Plug-In . SVG Version: 6.00 Build 0)  -->
<!DOCTYPE svg PUBLIC "-//W3C//DTD SVG 1.1//EN" "http://www.w3.org/Graphics/SVG/1.1/DTD/svg11.dtd">
<svg version="1.1" id="Layer_1" xmlns="http://www.w3.org/2000/svg" xmlns:xlink="http://www.w3.org/1999/xlink" x="0px" y="0px"
	 width="14.6px" height="13.755px" viewBox="7.5 3.745 14.6 13.755" style="enable-background:new 7.5 3.745 14.6 13.755;"
	 xml:space="preserve">
<path d="M17.6,5C17.7,5.5,17.7,5.5,17.7,6.1c0,0.2-0.101,1.1-0.101,1.4c0,0.2,0.101,0.3,0.2,0.4c0.2,0.3,0.1,0.8,0,1.1
	c0,0.2-0.1,0.4-0.2,0.6C17.5,9.8,17.2,9.8,17.1,10c-0.2,0.3-0.1,0.7-0.2,1c-0.1,0.3-0.399,0.4-0.399,0.8c0.1,0,0.3,0,0.399,0.101
	c0.101,0.3,0.4,0.899,0.601,1C17.7,13,17.9,13,18.1,13.1c0.7,0.301,1.601,0.7,2.3,1c0.7,0.301,1.5,0.4,1.7,1.101c0,0.5,0,1.6,0,2.3
	H7.5c0-0.6,0-1.8,0-2.3c0.2-0.7,1.1-0.8,1.7-1.101c0.8-0.3,1.6-0.699,2.3-1C11.7,13,11.9,13,12.1,12.9c0.3-0.2,0.5-0.801,0.601-1
	L13,11.8C12.9,11.4,12.7,11.4,12.6,11.1c0-0.399-0.1-0.8-0.1-1.2l-0.3-0.1C12,9.6,12,8.6,11.9,8.2c0-0.2,0.2-0.3,0.2-0.7
	c-0.399-2.1,0.2-3,1.2-3.3c0.7-0.3,2-0.8,3.1-0.1L16.7,4.4l0.5,0.1C17.4,4.6,17.6,5,17.6,5z"/>
</svg>
