<?xml version="1.0" encoding="utf-8"?>
<!-- Generator: Adobe Illustrator 15.0.2, SVG Export Plug-In . SVG Version: 6.00 Build 0)  -->
<!DOCTYPE svg PUBLIC "-//W3C//DTD SVG 1.1//EN" "http://www.w3.org/Graphics/SVG/1.1/DTD/svg11.dtd">
<svg version="1.1" id="Layer_1" xmlns="http://www.w3.org/2000/svg" xmlns:xlink="http://www.w3.org/1999/xlink" x="0px" y="0px"
	 width="14.024px" height="14.024px" viewBox="8.5 3.2 14.024 14.024" style="enable-background:new 8.5 3.2 14.024 14.024;"
	 xml:space="preserve">
<path d="M22.3,15L22.3,15L22.3,15l-3.5-3.5c0.5-0.8,0.7-1.7,0.7-2.7c0-3.1-2.4-5.6-5.5-5.6l0,0c-3,0-5.5,2.5-5.5,5.5
	c0,3.1,2.399,5.6,5.5,5.6l0,0c1,0,2-0.3,2.8-0.8l3.4,3.4l0,0l0.1,0.1c0.3,0.3,0.7,0.3,0.9,0l1.1-1.1C22.6,15.6,22.6,15.2,22.3,15z
	 M17,11.7c-0.8,0.8-1.8,1.2-2.9,1.2l0,0c-2.3,0-4.1-1.9-4.1-4.2c0-1.1,0.399-2.1,1.2-2.9C11.9,5,12.9,4.6,14,4.6l0,0
	c1.1,0,2.1,0.4,2.899,1.2c0.801,0.8,1.2,1.8,1.2,2.9C18.2,9.8,17.7,10.9,17,11.7z M15,5.8h-1.7v1.9h-1.9v1.7h1.9v1.9H15V9.4H16.9
	V7.7H15V5.8z"/>
</svg>
