<?xml version="1.0" standalone="no"?>
<!DOCTYPE svg PUBLIC "-//W3C//DTD SVG 1.1//EN" "http://www.w3.org/Graphics/SVG/1.1/DTD/svg11.dtd" >
<svg xmlns="http://www.w3.org/2000/svg">
<metadata>Generated by IcoMoon</metadata>
<defs>
<font id="icons" horiz-adv-x="1024">
<font-face units-per-em="1024" ascent="960" descent="-64" />
<missing-glyph horiz-adv-x="1024" />
<glyph unicode="&#x20;" horiz-adv-x="512" d="" />
<glyph unicode="&#xe600;" glyph-name="arrow_down" horiz-adv-x="1624" d="M812.138-64.353l812.138 1024h-1624.276l812.138-1024z" />
<glyph unicode="&#xe601;" glyph-name="zoom" d="M1007.644 98.391v0 0l-255.562 255.562c36.509 58.414 51.112 124.13 51.112 197.148 0 226.355-175.242 408.899-401.597 408.899v0c-219.053 0-401.597-182.544-401.597-401.597 0-226.355 175.169-408.899 401.597-408.899v0c73.018 0 146.035 21.905 204.45 58.414l255.562-255.562c21.905-21.905 51.112-21.905 65.716 0l80.319 80.319c21.905 21.905 21.905 51.112 0 65.716zM620.65 339.35c-58.414-58.414-131.432-87.621-211.751-87.621v0c-167.941 0-299.373 138.734-299.373 306.674 0 80.319 29.134 153.337 87.621 211.751 51.112 58.414 124.13 87.621 204.45 87.621v0c80.319 0 153.337-29.207 211.678-87.621 58.487-58.414 87.621-131.432 87.621-211.751 7.375-80.319-29.134-160.639-80.246-219.053zM474.615 770.154h-124.13v-138.734h-138.734v-124.13h138.734v-138.734h124.13v138.734h138.734v124.13h-138.734v138.734z" />
<glyph unicode="&#xe602;" glyph-name="users" horiz-adv-x="1544" d="M1521.555 69.991c-46.853 46.853-134.058 73.732-207.789 93.773-93.84 26.812-134.058 100.543-140.761 167.572 13.339 13.406 20.109 26.812 33.514 40.284 60.259-20.176 134.058-26.812 201.087 20.109-87.138 87.138-20.109 194.384-80.435 388.767-53.623 167.572-274.818 154.166-301.63 100.543-120.652 40.217-207.789-13.406-241.304-187.681-40.217-201.087 33.514-221.195-53.623-308.4 67.029-40.217 127.355-26.745 180.978-6.703 13.406-13.406 20.109-26.812 33.514-40.217-13.406-67.029-46.92-140.828-140.761-167.572-73.732-20.042-154.166-46.853-207.789-93.773-40.217-40.217-13.406-134.058-13.406-134.058h951.81c0-6.703 26.812 87.138-13.406 127.355zM549.637 90.099c46.92 46.92 127.355 73.732 194.384 93.773 6.703 0 13.406 6.77 20.109 6.77 26.812 6.703 53.623 20.109 73.799 40.217-20.176 6.77-46.92 20.109-67.029 26.812-13.406 6.703-33.514 6.703-46.92 13.406-20.176 13.406-40.284 53.623-46.987 80.435-13.406 0-20.109 0-26.812 6.77 0 33.514 20.176 33.514 26.812 60.326 6.703 20.109 0 53.623 13.406 73.732 6.703 13.339 20.109 13.339 26.812 20.042v6.703c0 33.514-6.703 87.138 6.77 160.869v0c0 20.109 6.703 87.138 6.703 107.246 0 40.217 0 40.217-6.703 80.435 0 0-13.406 33.514-26.812 46.92l-33.514 6.703-20.109 20.109c-93.907 40.217-187.748 6.703-241.371-20.109-73.732-20.109-120.652-93.84-87.138-241.304 6.703-26.812-13.406-40.217-13.406-53.623 0-33.514 6.703-107.246 33.514-120.652l20.109-6.703c0-26.812 6.703-60.326 6.703-87.138 6.77-20.109 26.812-20.109 26.812-53.623l-20.109-6.703c-13.406-20.109-26.812-67.029-46.92-80.368-13.406-6.77-33.514-6.77-46.92-13.473-53.623-20.109-93.84-46.92-147.464-73.732-53.623-20.109-113.949-26.812-127.355-80.435 0-33.514 0-120.719 0-167.572h522.825c0 26.812-13.406 107.246 26.812 154.166z" />
<glyph unicode="&#xe603;" glyph-name="user" horiz-adv-x="1087" d="M751.901 866.571c7.445-37.223 7.445-37.223 7.445-81.89 0-14.889-7.519-81.89-7.519-104.224 0-14.889 7.519-22.334 14.889-29.778 14.889-22.334 7.445-59.557 0-81.89 0-14.889-7.445-29.778-14.889-44.667-7.37-14.889-29.704-14.889-37.148-29.778-14.889-22.334-7.445-52.112-14.889-74.446-7.445-22.334-29.704-29.778-29.704-59.557 7.445 0 22.334 0 29.704-7.519 7.519-22.334 29.778-66.927 44.742-74.446 14.815-7.37 29.704-7.37 44.593-14.815 52.112-22.408 119.187-52.112 171.225-74.446 52.112-22.408 111.668-29.778 126.558-81.965 0-37.223 0-119.113 0-171.225h-1086.907c0 44.667 0 134.002 0 171.225 14.889 52.112 81.89 59.557 126.558 81.965 59.557 22.334 119.113 52.038 171.225 74.446 14.889 7.445 29.778 7.445 44.667 14.889 22.334 14.889 37.223 59.631 44.742 74.446l22.259 7.445c-7.445 29.778-22.334 29.778-29.778 52.112 0 29.704-7.445 59.557-7.445 89.335l-22.334 7.445c-14.889 14.889-14.889 89.335-22.334 119.113 0 14.889 14.889 22.334 14.889 52.112-29.704 156.336 14.889 223.337 89.335 245.671 52.112 22.334 148.891 59.557 230.782 7.445l22.334-22.334 37.223-7.445c14.889-7.445 29.778-37.223 29.778-37.223z" />
<glyph unicode="&#xe604;" glyph-name="trash" horiz-adv-x="896" d="M143.059-64h617.412l60.235 670.118h-730.353l52.706-670.118zM850.824 832h-195.765v22.588c0 60.235-45.252 105.412-105.412 105.412h-195.765c-60.311 0-105.412-45.176-105.412-105.412v-22.588h-195.765c-30.118 0-52.706-22.588-52.706-52.706v-120.471h896v128c0 22.588-22.588 45.176-45.176 45.176zM587.294 832h-263.529v22.588c0 15.059 15.059 30.118 30.118 30.118h195.765c15.059 0 30.118-15.059 30.118-30.118v-22.588h7.529z" />
<glyph unicode="&#xe606;" glyph-name="sort" horiz-adv-x="630" d="M315.077-64l315.077 393.846h-630.154l315.077-393.846zM315.077 960l-315.077-393.846h630.154l-315.077 393.846z" />
<glyph unicode="&#xe608;" glyph-name="search" d="M992.2 88.6l-242.4 206.2c-25 22.6-51.8 33-73.6 32 57.2 67 91.8 154 91.8 249.2 0 212-172 384-384 384s-384-172-384-384 172-384 384-384c95 0 182.2 34.6 249.2 91.8-1-21.6 9.4-48.4 32-73.6l206.2-242.6c35.4-39.2 93-42.6 128.2-7.4s32 93-7.4 128.4zM384 320c-141.4 0-256 114.6-256 256s114.6 256 256 256 256-114.6 256-256-114.6-256-256-256z" />
<glyph unicode="&#xe609;" glyph-name="plus" horiz-adv-x="1017" d="M601.187-64v416.206h416.206v191.587h-416.206v416.206h-184.981v-416.206h-416.206v-184.981h416.206v-416.206l184.981-6.606z" />
<glyph unicode="&#xe60a;" glyph-name="offlink" horiz-adv-x="1341" d="M1219.048 57.905h-1105.27v788.317h585.143v113.778h-698.921v-1024h1332.825v357.587h-113.778v-235.683zM934.603 960l130.032-130.032-308.825-308.825 146.367-146.286 308.744 308.825 130.032-130.032v406.349h-406.349z" />
<glyph unicode="&#xe60b;" glyph-name="menu" horiz-adv-x="1347" d="M0-64h1347.368v161.684h-1347.368v-161.684zM0 367.158h1347.368v161.684h-1347.368v-161.684zM0 960v-161.684h1347.368v161.684h-1347.368z" />
<glyph unicode="&#xe60c;" glyph-name="logout" horiz-adv-x="1240" d="M705.546 379.466v136.999h-424.697v212.349l-280.848-280.848 280.848-280.848v212.349h424.697zM363.048 811.013l95.899-95.899c75.35 75.35 171.249 109.599 267.080 109.599 95.899 0 191.799-34.25 267.148-109.599v0c75.35-75.35 109.599-171.249 109.599-267.148s-34.25-191.799-109.599-267.148v0c-75.418-75.35-171.249-109.599-267.148-109.599-95.831 0-191.799 34.25-267.080 109.599l-95.899-95.899c198.649-198.58 527.447-198.58 726.095 0l47.95 54.868c150.699 198.58 136.999 486.347-47.95 671.296v0c-198.649 198.58-527.447 198.58-726.095-0.068z" />
<glyph unicode="&#xe60e;" glyph-name="edit" horiz-adv-x="862" d="M862.316 744.421l-220.968 215.579-625.179-603.621v-215.579h226.358l619.789 603.621zM123.958 248.589v59.284l512 495.832 64.674-59.284-512-495.832h-64.674zM0-64h851.537v107.789h-851.537v-107.789z" />
<glyph unicode="&#xe60f;" glyph-name="delete_x" d="M1024 823.467l-136.533 136.533-375.467-375.467-375.467 375.467-136.533-136.533 375.467-375.467-375.467-375.467 136.533-136.533 375.467 375.467 375.381-375.467 136.619 136.533-375.467 375.467 375.467 375.467z" />
<glyph unicode="&#xe610;" glyph-name="chevron_right" horiz-adv-x="658" d="M138.148 960l-138.148-138.148 373.812-373.812-373.812-373.812 138.148-138.148 520.086 520.086-520.086 503.833z" />
<glyph unicode="&#xe611;" glyph-name="chevron_left" horiz-adv-x="658" d="M520.127-64l138.077 138.159-373.841 373.841 373.841 373.841-138.077 138.159-520.127-520.127 520.127-503.873z" />
<glyph unicode="&#xe612;" glyph-name="check" horiz-adv-x="1182" d="M492.308-64l-492.308 505.436 124.718 105.026 288.821-223.179c118.154 137.846 380.718 420.103 735.179 636.718l32.821-72.205c-328.205-308.513-603.897-735.179-689.231-951.795z" />
<glyph unicode="&#xe613;" glyph-name="calendar" horiz-adv-x="1034" d="M721.92 217.6h-107.52v-107.52h107.52v107.52zM573.44 504.32h-107.52v-107.52h107.52v107.52zM721.92 360.96h-107.52v-107.52h107.52v107.52zM721.92 504.32h-107.52v-107.52h107.52v107.52zM870.4 360.96h-107.52v-107.52h107.52v107.52zM256 714.24c25.6 0 46.080 20.48 46.080 46.080v153.6c0 25.6-20.48 46.080-46.080 46.080s-46.080-20.48-46.080-46.080v-158.72c0-20.48 20.48-40.96 46.080-40.96zM783.36 714.24c25.6 0 46.029 20.48 46.029 46.080v153.6c0.051 25.6-20.429 46.080-46.029 46.080s-46.080-20.48-46.080-46.080v-158.72c5.12-20.48 25.6-40.96 46.080-40.96zM870.4 504.32h-107.52v-107.52h107.52v107.52zM419.84 217.6h-107.52v-107.52h107.52v107.52zM271.36 217.6h-107.52v-107.52h107.52v107.52zM844.8 878.080v-46.080c15.36-15.36 30.72-40.96 30.72-66.56 0-51.2-40.96-87.040-87.040-87.040s-87.040 40.96-87.040 87.040c0 25.6 10.24 51.2 30.771 66.56v46.080h-419.891v-46.080c20.429-15.36 30.72-40.96 30.72-66.56 0-51.2-40.96-87.040-87.040-87.040-51.2 0-87.040 40.96-87.040 87.040 0 25.6 10.189 51.2 30.72 66.56v46.080h-199.68v-942.080h1034.24v942.080h-189.44zM936.96 28.16h-844.8v588.8h844.8v-588.8zM271.36 360.96h-107.52v-107.52h107.52v107.52zM419.84 360.96h-107.52v-107.52h107.52v107.52zM573.44 217.6h-107.52v-107.52h107.52v107.52zM419.84 504.32h-107.52v-107.52h107.52v107.52zM573.44 360.96h-107.52v-107.52h107.52v107.52zM271.36 504.32h-107.52v-107.52h107.52v107.52z" />
<glyph unicode="&#xe614;" glyph-name="pulldown" horiz-adv-x="627" d="M313.469 960l-303.020-386.612h616.49l-313.469 386.612zM313.469-64l303.020 386.612h-616.49l313.469-386.612z" />
<glyph unicode="&#xe615;" glyph-name="arrow_up" horiz-adv-x="1624" d="M812.138 960l-812.138-1024h1624.276l-812.138 1024z" />
<glyph unicode="&#xe616;" glyph-name="handle" horiz-adv-x="240" d="M239.657 840.594c0-65.975-53.673-119.406-119.829-119.406s-119.829 53.492-119.829 119.406 53.673 119.406 119.829 119.406 119.829-53.431 119.829-119.406zM239.657 448c0-65.975-53.673-119.406-119.829-119.406s-119.829 53.492-119.829 119.406 53.673 119.406 119.829 119.406 119.829-53.431 119.829-119.406zM239.657 55.406c0-65.975-53.673-119.406-119.829-119.406s-119.829 53.492-119.829 119.406c0 66.096 53.673 119.527 119.829 119.527s119.829-53.431 119.829-119.527z" />
<glyph unicode="&#xe617;" glyph-name="alert" horiz-adv-x="1170" d="M585.112 960l-585.185-1024h1170.369l-585.185 1024zM644.142 60.498h-123.62v121.206h123.62v-121.206zM613.566 231.665h-61.664l-34.38 288.277v156.829h129.545v-156.756l-33.502-288.35z" />
<glyph unicode="&#xe618;" glyph-name="chevron_up" horiz-adv-x="1170" d="M1048.137 210.432l-481.573 382.391-467.456-382.391-99.109 99.109 566.565 467.456 566.565-467.456-84.992-99.109z" />
<glyph unicode="&#xe619;" glyph-name="chevron_down" horiz-adv-x="1170" d="M89.015 662.016l496.128-394.167 481.646 394.167 102.034-101.961-583.68-482.523-583.68 481.792 87.552 102.693z" />
<glyph unicode="&#xe61a;" glyph-name="heavy_plus" d="M992 576h-352v352c0 17.6-14.4 32-32 32h-192c-17.6 0-32-14.4-32-32v-352h-352c-17.6 0-32-14.4-32-32v-192c0-17.6 14.4-32 32-32h352v-352c0-17.6 14.4-32 32-32h192c17.6 0 32 14.4 32 32v352h352c17.6 0 32 14.4 32 32v192c0 17.6-14.4 32-32 32z" />
<glyph unicode="&#xe61b;" glyph-name="question" horiz-adv-x="585" d="M402.286 233.143v-137.143q0-9.143-6.857-16t-16-6.857h-137.143q-9.143 0-16 6.857t-6.857 16v137.143q0 9.143 6.857 16t16 6.857h137.143q9.143 0 16-6.857t6.857-16zM582.857 576q0-30.857-8.857-57.714t-20-43.714-31.429-34-32.857-24.857-34.857-20.286q-23.429-13.143-39.143-37.143t-15.714-38.286q0-9.714-6.857-18.571t-16-8.857h-137.143q-8.571 0-14.571 10.571t-6 21.429v25.714q0 47.429 37.143 89.429t81.714 62q33.714 15.429 48 32t14.286 43.429q0 24-26.571 42.286t-61.429 18.286q-37.143 0-61.714-16.571-20-14.286-61.143-65.714-7.429-9.143-17.714-9.143-6.857 0-14.286 4.571l-93.714 71.429q-7.429 5.714-8.857 14.286t3.143 16q91.429 152 265.143 152 45.714 0 92-17.714t83.429-47.429 60.571-72.857 23.429-90.571z" />
<glyph unicode="&#xe61c;" glyph-name="eye" d="M950.857 402.286q-86.857 134.857-217.714 201.714 34.857-59.429 34.857-128.571 0-105.714-75.143-180.857t-180.857-75.143-180.857 75.143-75.143 180.857q0 69.143 34.857 128.571-130.857-66.857-217.714-201.714 76-117.143 190.571-186.571t248.286-69.429 248.286 69.429 190.571 186.571zM539.429 621.714q0 11.429-8 19.429t-19.429 8q-71.429 0-122.571-51.143t-51.143-122.571q0-11.429 8-19.429t19.429-8 19.429 8 8 19.429q0 49.143 34.857 84t84 34.857q11.429 0 19.429 8t8 19.429zM1024 402.286q0-19.429-11.429-39.429-80-131.429-215.143-210.571t-285.429-79.143-285.429 79.429-215.143 210.286q-11.429 20-11.429 39.429t11.429 39.429q80 130.857 215.143 210.286t285.429 79.429 285.429-79.429 215.143-210.286q11.429-20 11.429-39.429z" />
<glyph unicode="&#xe61d;" glyph-name="columns" horiz-adv-x="951" d="M91.429 73.143h347.429v658.286h-365.714v-640q0-7.429 5.429-12.857t12.857-5.429zM877.714 91.428v640h-365.714v-658.286h347.429q7.429 0 12.857 5.429t5.429 12.857zM950.857 786.286v-694.857q0-37.714-26.857-64.571t-64.571-26.857h-768q-37.714 0-64.571 26.857t-26.857 64.571v694.857q0 37.714 26.857 64.571t64.571 26.857h768q37.714 0 64.571-26.857t26.857-64.571z" />
<glyph unicode="&#xe61e;" glyph-name="fullscreen" horiz-adv-x="878" d="M733.143 641.714l-202.857-202.857 202.857-202.857 82.286 82.286q16.571 17.714 40 8 22.286-9.714 22.286-33.714v-256q0-14.857-10.857-25.714t-25.714-10.857h-256q-24 0-33.714 22.857-9.714 22.286 8 39.429l82.286 82.286-202.857 202.857-202.857-202.857 82.286-82.286q17.714-17.143 8-39.429-9.714-22.857-33.714-22.857h-256q-14.857 0-25.714 10.857t-10.857 25.714v256q0 24 22.857 33.714 22.286 9.714 39.429-8l82.286-82.286 202.857 202.857-202.857 202.857-82.286-82.286q-10.857-10.857-25.714-10.857-6.857 0-13.714 2.857-22.857 9.714-22.857 33.714v256q0 14.857 10.857 25.714t25.714 10.857h256q24 0 33.714-22.857 9.714-22.286-8-39.429l-82.286-82.286 202.857-202.857 202.857 202.857-82.286 82.286q-17.714 17.143-8 39.429 9.714 22.857 33.714 22.857h256q14.857 0 25.714-10.857t10.857-25.714v-256q0-24-22.286-33.714-7.429-2.857-14.286-2.857-14.857 0-25.714 10.857z" />
<glyph unicode="&#xe900;" glyph-name="copy" d="M640 704v256h-448l-192-192v-576h384v-256h640v768h-384zM192 869.49v-101.49h-101.49l101.49 101.49zM64 256v448h192v192h320v-192l-192-192v-256h-320zM576 613.49v-101.49h-101.49l101.49 101.49zM960 0h-512v448h192v192h320v-640z" />
<glyph unicode="&#xe901;" glyph-name="bars" d="M0 128h1024v-128h-1024v128zM128 384h128v-192h-128v192zM320 640h128v-448h-128v448zM512 448h128v-256h-128v256zM704 832h128v-640h-128v640z" />
<glyph unicode="&#xe902;" glyph-name="settings" d="M918.229 527.104c-17.493 2.517-36.096 18.261-41.515 34.987l-25.984 63.189c-8.149 15.573-6.229 39.893 4.267 53.931l42.24 56.235c10.496 14.080 9.685 36.437-2.005 49.579l-46.251 46.336c-13.184 11.605-35.499 12.501-49.664 1.92l-56.149-42.155c-14.080-10.581-38.315-12.501-53.931-4.309l-63.147 25.984c-16.853 5.376-32.597 23.979-34.987 41.429l-9.984 69.504c-2.432 17.451-18.816 33.195-36.267 35.072 0 0-10.88 1.109-32.853 1.109-21.931 0-32.811-1.109-32.811-1.109-17.493-1.877-33.877-17.621-36.352-35.072l-9.941-69.504c-2.475-17.451-18.219-36.053-34.987-41.429l-63.147-25.984c-15.616-8.149-39.851-6.272-53.931 4.309l-56.235 42.197c-14.080 10.581-36.437 9.728-49.621-1.92l-46.251-46.336c-11.605-13.184-12.544-35.499-1.963-49.579l42.155-56.235c10.624-14.080 12.501-38.357 4.352-53.931l-26.069-63.232c-5.333-16.768-23.979-32.512-41.429-34.987l-69.504-9.856c-17.408-2.517-33.152-18.859-34.987-36.395 0 0-1.152-10.88-1.152-32.853s1.152-32.853 1.152-32.853c1.835-17.536 17.579-33.835 34.987-36.352l69.504-9.899c17.408-2.517 36.096-18.261 41.429-34.987l26.069-63.147c8.149-15.573 6.229-39.936-4.352-53.931l-42.155-56.235c-10.581-14.080-13.141-33.237-5.632-42.411 7.467-9.259 28.885-32.085 28.928-32.171s7.296-6.656 16-14.677 44.459-19.157 58.539-8.661l56.192 42.24c14.080 10.496 38.315 12.501 53.931 4.267l63.147-25.984c16.811-5.333 32.555-23.979 34.987-41.429l9.941-69.504c2.475-17.408 18.816-33.237 36.352-35.072 0 0 10.88-1.152 32.811-1.152 21.973 0 32.853 1.152 32.853 1.152 17.451 1.835 33.835 17.664 36.267 35.072l9.984 69.504c2.432 17.408 18.176 36.096 34.987 41.429l63.147 26.069c15.573 8.149 39.851 6.229 53.931-4.352l56.235-42.24c14.165-10.496 36.437-9.685 49.664 2.005l46.165 46.251c11.648 13.269 12.501 35.584 2.005 49.664l-42.24 56.235c-10.496 13.995-12.416 38.315-4.267 53.931l25.984 63.147c5.419 16.768 23.979 32.512 41.515 34.987l69.419 9.899c17.493 2.517 33.237 18.816 35.072 36.352 0 0 1.152 10.88 1.152 32.853s-1.152 32.853-1.152 32.853c-1.835 17.493-17.579 33.877-35.072 36.395l-69.376 9.856zM512 320c-70.699 0-128 57.344-128 128 0 70.699 57.301 128 128 128s128-57.344 128-128c0-70.656-57.344-128-128-128z" />
<glyph unicode="&#xe903;" glyph-name="support" d="M512 896c-247.4 0-448-200.6-448-448s200.6-448 448-448c247.4 0 448 200.6 448 448s-200.6 448-448 448zM552.4 242.6c-1-35.6-27.4-57.6-61.6-56.6-32.8 1-58.6 24.4-57.6 60.2 1 35.6 28.2 58.2 61 57.2 34.4-1 59.4-25.2 58.2-60.8zM649.8 497.2c-8.4-11.8-27.2-27-50.8-45.4l-26.2-18c-12.8-9.8-20.8-21.4-25-34.6-2.2-7-3.8-25.2-4.2-37.4-0.2-2.4-1.6-7.8-9-7.8s-70 0-78.2 0c-8.2 0-9.2 4.8-9 7.2 1.2 33.2 6 60.6 19.8 82.6 18.6 29.6 71 60.8 71 60.8 8 6 14.2 12.4 19 19.4 8.8 12 16 25.4 16 39.8 0 16.6-4 32.4-14.6 45.6-12.4 15.4-25.8 22.8-51.6 22.8-25.4 0-40.2-12.8-50.8-29.6s-8.8-36.6-8.8-54.6h-97.4c0 68 17.8 111.4 55.4 137 25.4 17.4 57.8 25 95.6 25 49.6 0 89-9.2 123.8-35.6 32.2-24.4 49.2-58.8 49.2-105.2 0-28.6-10-52.6-24.2-72z" />
<glyph unicode="&#xe904;" glyph-name="home" d="M408.638 15.625h-254.798v411.042h-153.84l512 461.521 512-461.521h-153.84v-411.042h-254.798v307.681h-206.723v-307.681z" />
<glyph unicode="&#xe90d;" glyph-name="image" d="M959.884 832c0.040-0.034 0.082-0.076 0.116-0.116v-767.77c-0.034-0.040-0.076-0.082-0.116-0.116h-895.77c-0.040 0.034-0.082 0.076-0.114 0.116v767.772c0.034 0.040 0.076 0.082 0.114 0.114h895.77zM960 896h-896c-35.2 0-64-28.8-64-64v-768c0-35.2 28.8-64 64-64h896c35.2 0 64 28.8 64 64v768c0 35.2-28.8 64-64 64v0zM832 672c0-53.020-42.98-96-96-96s-96 42.98-96 96 42.98 96 96 96 96-42.98 96-96zM896 128h-768v128l224 384 256-320h64l224 192z" />
<glyph unicode="&#xe962;" glyph-name="save" d="M896 960h-896v-1024h1024v896l-128 128zM512 832h128v-256h-128v256zM896 64h-768v768h64v-320h576v320h74.978l53.022-53.018v-714.982z" />
<glyph unicode="&#xe977;" glyph-name="quote" d="M225 512c123.712 0 224-100.29 224-224 0-123.712-100.288-224-224-224s-224 100.288-224 224l-1 32c0 247.424 200.576 448 448 448v-128c-85.474 0-165.834-33.286-226.274-93.726-11.634-11.636-22.252-24.016-31.83-37.020 11.438 1.8 23.16 2.746 35.104 2.746zM801 512c123.71 0 224-100.29 224-224 0-123.712-100.29-224-224-224s-224 100.288-224 224l-1 32c0 247.424 200.576 448 448 448v-128c-85.474 0-165.834-33.286-226.274-93.726-11.636-11.636-22.254-24.016-31.832-37.020 11.44 1.8 23.16 2.746 35.106 2.746z" />
<glyph unicode="&#xe986;" glyph-name="search2" d="M992.262 88.604l-242.552 206.294c-25.074 22.566-51.89 32.926-73.552 31.926 57.256 67.068 91.842 154.078 91.842 249.176 0 212.078-171.922 384-384 384-212.076 0-384-171.922-384-384s171.922-384 384-384c95.098 0 182.108 34.586 249.176 91.844-1-21.662 9.36-48.478 31.926-73.552l206.294-242.552c35.322-39.246 93.022-42.554 128.22-7.356s31.892 92.898-7.354 128.22zM384 320c-141.384 0-256 114.616-256 256s114.616 256 256 256 256-114.616 256-256-114.614-256-256-256z" />
<glyph unicode="&#xe9b9;" glyph-name="list-ol" d="M384 128h640v-128h-640zM384 512h640v-128h-640zM384 896h640v-128h-640zM192 960v-256h-64v192h-64v64zM128 434v-50h128v-64h-192v146l128 60v50h-128v64h192v-146zM256 256v-320h-192v64h128v64h-128v64h128v64h-128v64z" />
<glyph unicode="&#xe9ba;" glyph-name="list-ul" d="M0 960h256v-256h-256zM384 896h640v-128h-640zM0 576h256v-256h-256zM384 512h640v-128h-640zM0 192h256v-256h-256zM384 128h640v-128h-640z" />
<glyph unicode="&#xe9cb;" glyph-name="link" d="M440.236 324.234c-13.31 0-26.616 5.076-36.77 15.23-95.134 95.136-95.134 249.934 0 345.070l192 192c46.088 46.086 107.36 71.466 172.534 71.466s126.448-25.38 172.536-71.464c95.132-95.136 95.132-249.934 0-345.070l-87.766-87.766c-20.308-20.308-53.23-20.308-73.54 0-20.306 20.306-20.306 53.232 0 73.54l87.766 87.766c54.584 54.586 54.584 143.404 0 197.99-26.442 26.442-61.6 41.004-98.996 41.004s-72.552-14.562-98.996-41.006l-192-191.998c-54.586-54.586-54.586-143.406 0-197.992 20.308-20.306 20.306-53.232 0-73.54-10.15-10.152-23.462-15.23-36.768-15.23zM256-52c-65.176 0-126.45 25.38-172.534 71.464-95.134 95.136-95.134 249.934 0 345.070l87.764 87.764c20.308 20.306 53.234 20.306 73.54 0 20.308-20.306 20.308-53.232 0-73.54l-87.764-87.764c-54.586-54.586-54.586-143.406 0-197.992 26.44-26.44 61.598-41.002 98.994-41.002s72.552 14.562 98.998 41.006l192 191.998c54.584 54.586 54.584 143.406 0 197.992-20.308 20.308-20.306 53.232 0 73.54 20.306 20.306 53.232 20.306 73.54-0.002 95.132-95.134 95.132-249.932 0.002-345.068l-192.002-192c-46.090-46.088-107.364-71.466-172.538-71.466z" />
<glyph unicode="&#xea0b;" glyph-name="minus" d="M0 544v-192c0-17.672 14.328-32 32-32h960c17.672 0 32 14.328 32 32v192c0 17.672-14.328 32-32 32h-960c-17.672 0-32-14.328-32-32z" />
<glyph unicode="&#xea61;" glyph-name="font" d="M64 448h384v-128h-128v-384h-128v384h-128zM960 704h-251.75v-768h-136.5v768h-251.75v128h640z" />
<glyph unicode="&#xea62;" glyph-name="bold" d="M707.88 475.348c37.498 44.542 60.12 102.008 60.12 164.652 0 141.16-114.842 256-256 256h-320v-896h384c141.158 0 256 114.842 256 256 0 92.956-49.798 174.496-124.12 219.348zM384 768h101.5c55.968 0 101.5-57.42 101.5-128s-45.532-128-101.5-128h-101.5v256zM543 128h-159v256h159c58.45 0 106-57.42 106-128s-47.55-128-106-128z" />
<glyph unicode="&#xea63;" glyph-name="underline" d="M704 896h128v-416c0-159.058-143.268-288-320-288-176.73 0-320 128.942-320 288v416h128v-416c0-40.166 18.238-78.704 51.354-108.506 36.896-33.204 86.846-51.494 140.646-51.494s103.75 18.29 140.646 51.494c33.116 29.802 51.354 68.34 51.354 108.506v416zM192 128h640v-128h-640z" />
<glyph unicode="&#xea64;" glyph-name="italic" d="M896 896v-64h-128l-320-768h128v-64h-448v64h128l320 768h-128v64z" />
<glyph unicode="&#xea80;" glyph-name="code" horiz-adv-x="1280" d="M832 224l96-96 320 320-320 320-96-96 224-224zM448 672l-96 96-320-320 320-320 96 96-224 224zM701.298 809.481l69.468-18.944-191.987-704.026-69.468 18.944 191.987 704.026z" />
</font>
</defs>
</svg>
